<svg xmlns="http://www.w3.org/2000/svg" xmlns:xlink="http://www.w3.org/1999/xlink" width="194" zoomAndPan="magnify" viewBox="0 0 145.5 133.500001" height="178" preserveAspectRatio="xMidYMid meet" version="1.0"><defs><filter x="0%" y="0%" width="100%" height="100%" id="cc96bb3576"><feColorMatrix values="0 0 0 0 1 0 0 0 0 1 0 0 0 0 1 0 0 0 1 0" color-interpolation-filters="sRGB"/></filter><clipPath id="bdfc28446d"><path d="M 0.0234375 8 L 132 8 L 132 133 L 0.0234375 133 Z M 0.0234375 8 " clip-rule="nonzero"/></clipPath><mask id="410ad8427b"><g filter="url(#cc96bb3576)"><rect x="-14.55" width="174.6" fill="#000000" y="-13.35" height="160.200001" fill-opacity="0.25"/></g></mask><clipPath id="60df1d5c05"><path d="M 20 29 L 114 29 L 114 102 L 20 102 Z M 20 29 " clip-rule="nonzero"/></clipPath><clipPath id="0d1ce889c7"><path d="M 131.644531 85.40625 L 34.839844 125.050781 L 0.289062 40.691406 L 97.09375 1.046875 Z M 131.644531 85.40625 " clip-rule="nonzero"/></clipPath><clipPath id="23212904dc"><path d="M 131.644531 85.40625 L 34.839844 125.050781 L 0.289062 40.691406 L 97.09375 1.046875 Z M 131.644531 85.40625 " clip-rule="nonzero"/></clipPath><clipPath id="4a47e2b558"><path d="M 131.644531 85.40625 L 34.839844 125.050781 L 0.289062 40.691406 L 97.09375 1.046875 Z M 131.644531 85.40625 " clip-rule="nonzero"/></clipPath><clipPath id="6547053720"><rect x="0" width="132" y="0" height="125"/></clipPath><clipPath id="cc269eca16"><path d="M 29 10 L 144.839844 10 L 144.839844 125.382812 L 29 125.382812 Z M 29 10 " clip-rule="nonzero"/></clipPath><clipPath id="6c27e220b7"><path d="M 91 0.601562 L 119 0.601562 L 119 47 L 91 47 Z M 91 0.601562 " clip-rule="nonzero"/></clipPath></defs><g clip-path="url(#bdfc28446d)"><g mask="url(#410ad8427b)"><g transform="matrix(1, 0, 0, 1, -0.000000000000000056, 8)"><g clip-path="url(#6547053720)"><g clip-path="url(#60df1d5c05)"><g clip-path="url(#0d1ce889c7)"><g clip-path="url(#23212904dc)"><g clip-path="url(#4a47e2b558)"><path fill="#76cccf" d="M 55.132812 98.863281 C 37.421875 92.441406 4.078125 49.765625 29.421875 33.054688 C 46.554688 21.746094 49.289062 39.855469 72.789062 54.035156 C 80.574219 58.726562 118.65625 53.871094 113.0625 78.019531 C 109.746094 92.332031 78.300781 107.25 55.132812 98.863281 Z M 55.132812 98.863281 " fill-opacity="1" fill-rule="nonzero"/></g></g></g></g></g></g></g></g><g clip-path="url(#cc269eca16)"><path fill="#336b87" d="M 121.488281 21.804688 C 121.332031 21.683594 121.15625 21.632812 120.957031 21.660156 C 120.761719 21.683594 120.601562 21.777344 120.484375 21.9375 C 120.367188 22.097656 120.320312 22.273438 120.351562 22.472656 C 120.386719 22.667969 120.480469 22.824219 120.644531 22.9375 C 134.734375 33.417969 142.933594 49.539062 143.144531 67.171875 C 143.21875 73.023438 142.398438 78.742188 140.683594 84.335938 C 139.597656 85.71875 138.519531 87.105469 137.402344 88.460938 C 136.144531 90.023438 134.804688 91.515625 133.390625 92.9375 C 133.070312 93.253906 132.742188 93.558594 132.40625 93.855469 C 132.246094 93.996094 132.082031 94.136719 131.917969 94.273438 L 131.6875 94.460938 L 131.585938 94.539062 C 131.664062 94.476562 131.566406 94.539062 131.546875 94.566406 C 130.738281 95.179688 129.871094 95.710938 129.039062 96.292969 C 128.132812 96.886719 127.316406 97.589844 126.589844 98.398438 C 125.886719 99.210938 125.394531 100.136719 125.113281 101.175781 C 124.84375 102.175781 124.785156 103.1875 124.9375 104.210938 C 125.089844 105.234375 125.441406 106.1875 125.988281 107.066406 C 126.132812 107.289062 126.292969 107.496094 126.460938 107.703125 C 123.882812 110.261719 121.078125 112.542969 118.054688 114.546875 C 115.027344 116.554688 111.835938 118.25 108.476562 119.628906 C 105.121094 121.007812 101.660156 122.050781 98.097656 122.753906 C 94.535156 123.453125 90.9375 123.804688 87.308594 123.800781 L 87.210938 123.800781 C 83.621094 123.816406 80.066406 123.484375 76.539062 122.808594 C 73.011719 122.136719 69.585938 121.128906 66.253906 119.789062 C 62.921875 118.449219 59.753906 116.804688 56.738281 114.851562 C 53.726562 112.898438 50.929688 110.675781 48.347656 108.183594 C 48.773438 107.441406 49.097656 106.664062 49.328125 105.839844 C 49.554688 105.019531 49.679688 104.183594 49.695312 103.328125 C 49.714844 102.476562 49.625 101.636719 49.433594 100.804688 C 49.238281 99.972656 48.945312 99.179688 48.554688 98.421875 C 47.769531 96.925781 46.53125 95.800781 45.367188 94.613281 C 45.074219 94.324219 44.808594 94.03125 44.550781 93.738281 L 44.375 93.523438 L 44.355469 93.503906 C 44.328125 93.472656 44.304688 93.4375 44.285156 93.40625 C 44.167969 93.253906 44.0625 93.09375 43.960938 92.933594 C 43.867188 92.78125 43.777344 92.625 43.699219 92.460938 L 43.636719 92.328125 C 43.605469 92.238281 43.570312 92.148438 43.539062 92.054688 C 43.484375 91.882812 43.441406 91.710938 43.410156 91.535156 C 43.410156 91.5 43.390625 91.453125 43.386719 91.414062 L 43.386719 91.378906 C 43.386719 91.28125 43.386719 91.1875 43.371094 91.085938 C 43.371094 90.933594 43.371094 90.792969 43.390625 90.632812 C 43.390625 90.632812 43.390625 90.648438 43.390625 90.65625 C 43.402344 90.617188 43.40625 90.574219 43.410156 90.535156 C 43.410156 90.457031 43.441406 90.378906 43.460938 90.296875 C 43.496094 90.152344 43.535156 90.011719 43.585938 89.871094 C 43.613281 89.792969 43.640625 89.722656 43.667969 89.644531 L 43.710938 89.546875 C 43.992188 88.957031 44.328125 88.402344 44.726562 87.882812 C 44.753906 87.847656 44.78125 87.8125 44.804688 87.777344 L 44.945312 87.601562 L 45.285156 87.1875 C 45.5 86.921875 45.71875 86.660156 45.929688 86.394531 C 46.390625 85.851562 46.808594 85.277344 47.1875 84.675781 C 47.933594 83.4375 48.3125 81.953125 47.851562 80.539062 C 47.308594 78.878906 45.863281 77.6875 44.335938 76.945312 C 42.519531 76.109375 40.617188 75.644531 38.621094 75.550781 C 36.59375 75.425781 34.605469 75.65625 32.660156 76.242188 C 32.40625 76.316406 32.160156 76.402344 31.914062 76.488281 C 31.496094 73.757812 31.277344 71.011719 31.261719 68.25 C 31.203125 61.6875 32.273438 55.308594 34.46875 49.121094 C 34.785156 48.257812 35.28125 47.515625 35.960938 46.894531 C 36.636719 46.273438 37.421875 45.84375 38.308594 45.605469 C 40.679688 44.941406 42.460938 44.9375 43.320312 45.605469 C 43.796875 45.964844 44.027344 46.550781 44.027344 47.398438 C 44.027344 50.167969 42.753906 52.824219 41.402344 55.640625 C 40.046875 58.457031 38.644531 61.402344 38.644531 64.492188 C 38.644531 66.171875 38.808594 67.960938 40.019531 68.460938 C 41.683594 69.148438 44.003906 67.207031 50.59375 60.617188 C 54.410156 56.800781 58.097656 55.949219 61.0625 55.253906 C 64.449219 54.464844 67.375 53.792969 68.367188 49.085938 C 69.269531 44.820312 67.722656 40.714844 66.355469 37.089844 C 65.039062 33.589844 63.796875 30.300781 64.914062 27.464844 C 66.148438 24.335938 67.511719 23.035156 68.675781 22.167969 C 69.285156 21.730469 69.808594 21.207031 70.25 20.601562 C 70.691406 19.996094 71.023438 19.335938 71.253906 18.621094 C 71.484375 17.910156 71.597656 17.179688 71.59375 16.429688 C 71.589844 15.679688 71.46875 14.949219 71.230469 14.238281 C 76.039062 12.8125 80.953125 12.046875 85.96875 11.9375 L 85.984375 11.9375 C 86.566406 11.9375 87.121094 11.921875 87.691406 11.9375 C 87.886719 11.9375 88.050781 11.871094 88.191406 11.730469 C 88.328125 11.59375 88.394531 11.429688 88.394531 11.234375 C 88.394531 11.039062 88.328125 10.871094 88.191406 10.734375 C 88.050781 10.597656 87.886719 10.527344 87.691406 10.527344 L 87.066406 10.527344 C 83.140625 10.53125 79.257812 10.929688 75.414062 11.730469 C 71.570312 12.53125 67.851562 13.714844 64.25 15.277344 C 60.648438 16.839844 57.246094 18.753906 54.039062 21.019531 C 50.832031 23.28125 47.886719 25.847656 45.207031 28.714844 C 45.070312 28.855469 45.007812 29.027344 45.011719 29.222656 C 45.019531 29.417969 45.09375 29.585938 45.238281 29.71875 C 45.378906 29.851562 45.550781 29.917969 45.746094 29.90625 C 45.945312 29.898438 46.109375 29.824219 46.242188 29.675781 C 49.476562 26.210938 53.09375 23.203125 57.09375 20.65625 C 61.097656 18.109375 65.351562 16.105469 69.863281 14.640625 C 70.058594 15.214844 70.160156 15.800781 70.164062 16.402344 C 70.167969 17.003906 70.078125 17.59375 69.894531 18.167969 C 69.710938 18.742188 69.441406 19.273438 69.089844 19.761719 C 68.734375 20.25 68.3125 20.667969 67.824219 21.019531 C 66.496094 22.003906 64.957031 23.472656 63.589844 26.933594 C 62.269531 30.273438 63.605469 33.820312 65.019531 37.574219 C 66.382812 41.183594 67.789062 44.917969 66.972656 48.78125 C 66.167969 52.597656 64.117188 53.074219 60.730469 53.863281 C 57.589844 54.59375 53.683594 55.5 49.585938 59.601562 C 46.40625 62.777344 41.609375 67.574219 40.542969 67.140625 C 40.460938 67.105469 40.042969 66.8125 40.042969 64.476562 C 40.042969 61.707031 41.3125 59.050781 42.667969 56.234375 C 44.019531 53.421875 45.425781 50.476562 45.425781 47.382812 C 45.425781 46.082031 45 45.101562 44.164062 44.46875 C 42.90625 43.511719 40.804688 43.4375 37.917969 44.246094 C 36.808594 44.550781 35.835938 45.09375 34.992188 45.871094 C 34.152344 46.652344 33.535156 47.582031 33.144531 48.660156 C 32.761719 49.738281 32.40625 50.824219 32.089844 51.921875 C 31.769531 53.023438 31.480469 54.128906 31.230469 55.242188 C 30.976562 56.359375 30.757812 57.480469 30.570312 58.609375 C 30.382812 59.738281 30.230469 60.871094 30.113281 62.007812 C 29.996094 63.144531 29.910156 64.285156 29.859375 65.425781 C 29.8125 66.570312 29.796875 67.710938 29.8125 68.855469 C 29.832031 70 29.886719 71.140625 29.972656 72.28125 C 30.058594 73.421875 30.179688 74.558594 30.335938 75.691406 C 30.488281 76.824219 30.679688 77.953125 30.902344 79.074219 C 31.121094 80.195312 31.378906 81.308594 31.667969 82.414062 C 31.957031 83.523438 32.277344 84.617188 32.632812 85.707031 C 32.988281 86.792969 33.375 87.867188 33.796875 88.933594 C 34.214844 89.996094 34.664062 91.046875 35.148438 92.082031 C 35.628906 93.121094 36.140625 94.140625 36.6875 95.148438 C 37.230469 96.15625 37.800781 97.144531 38.40625 98.117188 C 39.007812 99.085938 39.636719 100.039062 40.296875 100.976562 C 40.957031 101.910156 41.644531 102.824219 42.359375 103.714844 C 43.074219 104.609375 43.8125 105.480469 44.582031 106.328125 C 45.347656 107.175781 46.136719 108 46.953125 108.800781 C 47.769531 109.605469 48.609375 110.378906 49.472656 111.128906 C 50.335938 111.882812 51.21875 112.605469 52.125 113.304688 C 53.03125 114.003906 53.957031 114.671875 54.902344 115.316406 C 55.847656 115.957031 56.8125 116.570312 57.796875 117.15625 C 58.777344 117.742188 59.777344 118.296875 60.792969 118.820312 C 61.808594 119.347656 62.839844 119.839844 63.886719 120.304688 C 64.929688 120.765625 65.988281 121.199219 67.0625 121.597656 C 68.132812 121.996094 69.214844 122.363281 70.308594 122.699219 C 71.402344 123.035156 72.503906 123.335938 73.613281 123.605469 C 74.726562 123.875 75.84375 124.109375 76.972656 124.3125 C 78.097656 124.515625 79.226562 124.683594 80.363281 124.816406 C 81.5 124.949219 82.636719 125.050781 83.777344 125.117188 C 84.921875 125.183594 86.0625 125.214844 87.207031 125.210938 L 87.308594 125.210938 C 89.199219 125.210938 91.085938 125.113281 92.96875 124.921875 C 94.847656 124.734375 96.714844 124.449219 98.570312 124.074219 C 100.421875 123.703125 102.253906 123.234375 104.0625 122.679688 C 105.867188 122.125 107.644531 121.480469 109.390625 120.75 C 111.132812 120.019531 112.835938 119.203125 114.5 118.304688 C 116.164062 117.402344 117.777344 116.425781 119.34375 115.363281 C 120.910156 114.304688 122.421875 113.171875 123.875 111.960938 C 125.328125 110.753906 126.71875 109.476562 128.046875 108.128906 C 129.375 106.78125 130.632812 105.375 131.820312 103.902344 C 133.011719 102.433594 134.125 100.90625 135.160156 99.324219 C 136.199219 97.742188 137.15625 96.117188 138.03125 94.441406 C 138.910156 92.765625 139.699219 91.050781 140.40625 89.296875 C 141.113281 87.542969 141.734375 85.757812 142.261719 83.941406 C 142.792969 82.125 143.234375 80.289062 143.582031 78.429688 C 143.929688 76.574219 144.1875 74.703125 144.351562 72.816406 C 144.511719 70.933594 144.582031 69.046875 144.5625 67.15625 C 144.34375 49.078125 135.933594 32.546875 121.488281 21.804688 Z M 32.152344 77.921875 C 32.902344 77.640625 33.667969 77.421875 34.449219 77.257812 C 34.679688 77.210938 34.914062 77.167969 35.144531 77.128906 L 35.511719 77.074219 L 35.535156 77.074219 L 35.789062 77.042969 C 36.257812 76.992188 36.730469 76.960938 37.207031 76.949219 C 37.683594 76.9375 38.195312 76.949219 38.691406 76.980469 C 38.929688 76.996094 39.160156 77.015625 39.398438 77.042969 L 39.671875 77.074219 L 39.785156 77.09375 L 39.976562 77.121094 C 40.929688 77.269531 41.859375 77.5 42.765625 77.820312 L 43.058594 77.933594 L 43.203125 77.992188 C 43.394531 78.070312 43.582031 78.160156 43.765625 78.253906 C 44.121094 78.429688 44.460938 78.628906 44.785156 78.855469 C 44.859375 78.910156 44.945312 78.960938 45.019531 79.023438 L 45.140625 79.121094 C 45.300781 79.257812 45.457031 79.394531 45.601562 79.542969 C 45.722656 79.660156 45.835938 79.789062 45.941406 79.921875 C 45.921875 79.898438 45.910156 79.886719 45.941406 79.949219 L 46.027344 80.070312 C 46.082031 80.152344 46.136719 80.234375 46.1875 80.324219 C 46.238281 80.410156 46.289062 80.496094 46.332031 80.585938 C 46.347656 80.617188 46.363281 80.644531 46.375 80.675781 C 46.375 80.683594 46.375 80.691406 46.375 80.699219 C 46.464844 80.878906 46.519531 81.066406 46.546875 81.261719 C 46.570312 81.335938 46.585938 81.414062 46.59375 81.488281 L 46.59375 81.53125 C 46.597656 81.570312 46.597656 81.605469 46.59375 81.644531 C 46.605469 81.804688 46.605469 81.960938 46.59375 82.121094 C 46.59375 82.183594 46.539062 82.457031 46.59375 82.214844 C 46.578125 82.28125 46.574219 82.347656 46.558594 82.410156 C 46.539062 82.570312 46.511719 82.722656 46.476562 82.878906 C 46.4375 83.007812 46.386719 83.128906 46.339844 83.253906 L 46.296875 83.351562 L 46.183594 83.574219 C 46.035156 83.859375 45.867188 84.132812 45.6875 84.398438 C 45.601562 84.523438 45.515625 84.644531 45.421875 84.769531 C 45.375 84.832031 45.332031 84.898438 45.28125 84.957031 C 45.25 84.988281 45.226562 85.027344 45.199219 85.0625 C 44.789062 85.585938 44.355469 86.09375 43.9375 86.613281 C 43.105469 87.65625 42.257812 88.808594 42.023438 90.15625 C 41.875 90.9375 41.925781 91.707031 42.171875 92.464844 C 42.460938 93.253906 42.875 93.960938 43.421875 94.597656 C 43.933594 95.195312 44.476562 95.769531 45.042969 96.3125 C 45.335938 96.605469 45.609375 96.871094 45.882812 97.160156 C 46.007812 97.296875 46.128906 97.429688 46.25 97.566406 L 46.449219 97.800781 L 46.515625 97.882812 L 46.5625 97.945312 C 46.808594 98.269531 47.027344 98.609375 47.222656 98.964844 C 47.3125 99.128906 47.398438 99.296875 47.480469 99.46875 C 47.519531 99.558594 47.5625 99.644531 47.597656 99.734375 L 47.679688 99.9375 C 47.820312 100.320312 47.941406 100.707031 48.035156 101.105469 C 48.074219 101.289062 48.113281 101.472656 48.148438 101.660156 C 48.148438 101.75 48.183594 101.847656 48.191406 101.953125 C 48.191406 102.027344 48.207031 102.097656 48.214844 102.167969 C 48.253906 102.5625 48.269531 102.960938 48.261719 103.355469 C 48.261719 103.554688 48.246094 103.753906 48.230469 103.9375 C 48.230469 104.046875 48.207031 104.15625 48.195312 104.261719 C 48.195312 104.261719 48.195312 104.339844 48.195312 104.359375 C 48.195312 104.378906 48.195312 104.421875 48.183594 104.449219 C 48.121094 104.84375 48.035156 105.234375 47.921875 105.617188 C 47.867188 105.804688 47.804688 105.992188 47.738281 106.179688 L 47.621094 106.46875 L 47.542969 106.648438 C 47.464844 106.816406 47.382812 106.976562 47.296875 107.136719 C 43.351562 103.144531 40.089844 98.660156 37.507812 93.675781 C 34.925781 88.695312 33.140625 83.445312 32.152344 77.921875 Z M 126.328125 102.246094 Z M 126.726562 105.441406 L 126.746094 105.492188 C 126.734375 105.472656 126.730469 105.453125 126.726562 105.433594 Z M 127.460938 106.707031 L 127.367188 106.578125 C 127.300781 106.484375 127.234375 106.386719 127.175781 106.285156 C 127.050781 106.089844 126.9375 105.890625 126.835938 105.679688 L 126.757812 105.511719 C 126.710938 105.394531 126.667969 105.277344 126.625 105.160156 C 126.550781 104.941406 126.488281 104.71875 126.433594 104.492188 C 126.410156 104.386719 126.390625 104.285156 126.371094 104.179688 C 126.371094 104.117188 126.351562 104.058594 126.339844 103.996094 C 126.332031 103.9375 126.339844 103.949219 126.339844 103.941406 C 126.316406 103.710938 126.300781 103.476562 126.292969 103.246094 C 126.289062 103.011719 126.292969 102.78125 126.316406 102.550781 C 126.316406 102.488281 126.316406 102.425781 126.339844 102.363281 L 126.339844 102.335938 C 126.371094 102.21875 126.394531 102.09375 126.398438 101.96875 C 126.445312 101.742188 126.503906 101.519531 126.570312 101.296875 C 126.601562 101.199219 126.636719 101.09375 126.675781 101.003906 C 126.714844 100.914062 126.722656 100.886719 126.742188 100.828125 C 126.765625 100.773438 126.722656 100.875 126.722656 100.875 C 126.734375 100.839844 126.75 100.808594 126.765625 100.777344 C 126.863281 100.566406 126.96875 100.359375 127.085938 100.160156 C 127.144531 100.0625 127.210938 99.964844 127.273438 99.871094 L 127.375 99.730469 L 127.445312 99.632812 C 127.753906 99.242188 128.097656 98.882812 128.476562 98.550781 C 128.664062 98.386719 128.859375 98.226562 129.058594 98.066406 L 129.101562 98.035156 L 129.261719 97.914062 L 129.574219 97.6875 C 130.40625 97.105469 131.277344 96.558594 132.101562 95.960938 C 132.804688 95.4375 133.472656 94.875 134.105469 94.269531 C 135.496094 92.914062 136.800781 91.488281 138.027344 89.984375 C 138.457031 89.46875 138.875 88.949219 139.296875 88.429688 C 136.5625 95.304688 132.617188 101.394531 127.460938 106.699219 Z M 127.460938 106.707031 " fill-opacity="1" fill-rule="nonzero"/></g><path fill="#336b87" d="M 85.207031 55.378906 C 85.625 56.675781 86.429688 57.664062 87.617188 58.335938 C 88.261719 58.679688 88.949219 58.882812 89.679688 58.949219 C 90.40625 59.011719 91.117188 58.9375 91.816406 58.714844 C 93.175781 58.296875 94.390625 57.617188 95.457031 56.671875 C 95.695312 56.925781 95.945312 57.175781 96.199219 57.417969 C 97.28125 58.480469 98.558594 59.175781 100.035156 59.507812 C 101.65625 59.828125 103.304688 59.660156 104.9375 59.546875 C 106.414062 59.417969 107.882812 59.480469 109.347656 59.730469 C 112.167969 60.269531 114.800781 61.59375 116.683594 63.785156 C 117.589844 64.824219 118.261719 65.996094 118.699219 67.300781 C 119.136719 68.605469 119.308594 69.945312 119.210938 71.320312 C 119.15625 71.949219 119.03125 72.5625 118.84375 73.167969 C 118.667969 73.753906 118.429688 74.316406 118.136719 74.851562 C 117.53125 75.984375 116.761719 76.988281 115.828125 77.863281 C 114.882812 78.777344 113.839844 79.554688 112.695312 80.199219 C 111.480469 80.890625 110.199219 81.441406 108.855469 81.84375 C 105.6875 82.824219 102.378906 83.1875 99.09375 83.574219 C 96.019531 83.929688 92.933594 84.320312 89.964844 85.230469 C 87.132812 86.105469 84.410156 87.441406 82.261719 89.515625 C 80.015625 91.671875 78.558594 94.507812 76.261719 96.617188 C 75.261719 97.585938 74.09375 98.28125 72.761719 98.699219 C 72.117188 98.898438 71.453125 98.960938 70.78125 98.894531 C 70.722656 98.894531 70.664062 98.890625 70.605469 98.878906 L 70.367188 98.832031 C 70.195312 98.792969 70.027344 98.746094 69.863281 98.683594 C 69.601562 98.574219 69.371094 98.425781 69.164062 98.238281 C 69.0625 98.144531 68.976562 98.039062 68.90625 97.917969 C 68.832031 97.804688 68.769531 97.683594 68.714844 97.558594 C 68.652344 97.398438 68.605469 97.234375 68.570312 97.066406 C 68.535156 96.933594 68.515625 96.796875 68.503906 96.660156 C 68.476562 96.316406 68.476562 95.976562 68.503906 95.636719 C 68.503906 95.5625 68.519531 95.488281 68.527344 95.417969 C 68.527344 95.394531 68.527344 95.316406 68.550781 95.292969 C 68.574219 95.144531 68.601562 95.003906 68.636719 94.851562 C 68.703125 94.554688 68.785156 94.261719 68.882812 93.976562 C 68.929688 93.835938 68.984375 93.683594 69.039062 93.558594 C 69.039062 93.542969 69.039062 93.53125 69.039062 93.515625 L 69.058594 93.472656 C 69.089844 93.402344 69.125 93.324219 69.160156 93.253906 C 69.414062 92.707031 69.714844 92.183594 70.050781 91.683594 C 70.21875 91.425781 70.398438 91.175781 70.585938 90.929688 C 70.738281 90.722656 70.875 90.539062 71.09375 90.277344 C 71.496094 89.785156 71.910156 89.304688 72.335938 88.820312 C 73.183594 87.855469 74.050781 86.910156 74.847656 85.902344 C 76.640625 83.761719 77.730469 81.308594 78.117188 78.542969 C 78.554688 75.722656 78.425781 72.863281 78.3125 70.023438 C 78.257812 68.605469 78.207031 67.1875 78.238281 65.769531 C 78.253906 65.074219 78.289062 64.378906 78.355469 63.683594 C 78.414062 63.039062 78.511719 62.394531 78.644531 61.757812 C 78.890625 60.484375 79.308594 59.265625 79.902344 58.109375 C 79.996094 57.941406 80.019531 57.761719 79.96875 57.578125 C 79.917969 57.390625 79.8125 57.246094 79.648438 57.144531 C 79.480469 57.046875 79.304688 57.023438 79.113281 57.074219 C 78.925781 57.121094 78.785156 57.230469 78.683594 57.394531 C 77.316406 60.003906 76.894531 62.9375 76.835938 65.855469 C 76.777344 68.769531 77.058594 71.6875 77.023438 74.605469 C 77.027344 76.011719 76.914062 77.410156 76.675781 78.796875 C 76.429688 80.152344 75.988281 81.441406 75.351562 82.664062 C 74.121094 84.964844 72.269531 86.730469 70.554688 88.746094 C 68.84375 90.761719 67.320312 92.992188 67.089844 95.691406 C 66.957031 97.238281 67.414062 98.917969 68.835938 99.738281 C 70.191406 100.519531 71.957031 100.4375 73.402344 99.964844 C 76.5 98.953125 78.554688 96.351562 80.4375 93.84375 C 81.363281 92.527344 82.402344 91.316406 83.5625 90.203125 C 84.652344 89.230469 85.859375 88.429688 87.175781 87.800781 C 89.800781 86.507812 92.824219 85.832031 95.761719 85.390625 C 99.15625 84.886719 102.589844 84.660156 105.96875 84 C 109.023438 83.398438 112.03125 82.410156 114.617188 80.636719 C 116.949219 79.050781 118.898438 76.917969 119.9375 74.273438 C 121.042969 71.476562 120.792969 68.371094 119.550781 65.667969 C 118.894531 64.289062 118.019531 63.066406 116.925781 62 C 115.832031 60.933594 114.589844 60.09375 113.191406 59.472656 C 111.726562 58.816406 110.199219 58.386719 108.605469 58.191406 C 107.015625 57.984375 105.445312 58.09375 103.851562 58.207031 C 103.015625 58.277344 102.183594 58.296875 101.347656 58.257812 C 100.96875 58.238281 100.597656 58.1875 100.230469 58.101562 C 100.050781 58.0625 99.875 58.019531 99.699219 57.960938 L 99.410156 57.859375 L 99.214844 57.78125 C 98.167969 57.28125 97.265625 56.589844 96.503906 55.714844 C 97.398438 54.839844 98.234375 53.90625 99.089844 53.027344 C 100.0625 51.957031 101.191406 51.082031 102.472656 50.402344 C 102.636719 50.300781 102.746094 50.160156 102.796875 49.972656 C 102.84375 49.785156 102.820312 49.605469 102.726562 49.4375 C 102.625 49.273438 102.480469 49.164062 102.292969 49.117188 C 102.105469 49.066406 101.925781 49.089844 101.757812 49.183594 C 99.21875 50.441406 97.554688 52.765625 95.566406 54.695312 C 94.824219 53.789062 93.992188 52.96875 93.082031 52.234375 C 92.019531 51.449219 90.832031 50.976562 89.519531 50.824219 C 88.902344 50.730469 88.292969 50.773438 87.695312 50.949219 C 87.097656 51.128906 86.5625 51.425781 86.097656 51.84375 C 85.628906 52.300781 85.316406 52.851562 85.15625 53.484375 C 84.996094 54.121094 85.011719 54.75 85.207031 55.378906 Z M 87.128906 56.074219 C 87.070312 56.003906 87.117188 56.0625 87.128906 56.074219 Z M 86.59375 53.542969 Z M 86.46875 54.015625 C 86.46875 54.058594 86.46875 54.058594 86.46875 54.015625 Z M 86.46875 54.089844 C 86.46875 54.0625 86.46875 54.035156 86.46875 54.011719 C 86.496094 53.886719 86.519531 53.769531 86.558594 53.648438 C 86.558594 53.613281 86.585938 53.578125 86.597656 53.539062 C 86.609375 53.503906 86.65625 53.414062 86.691406 53.351562 L 86.796875 53.183594 L 86.863281 53.089844 C 86.945312 52.984375 87.035156 52.886719 87.132812 52.796875 C 87.164062 52.769531 87.199219 52.734375 87.238281 52.707031 L 87.320312 52.644531 C 87.4375 52.566406 87.558594 52.5 87.683594 52.4375 C 87.707031 52.4375 87.761719 52.402344 87.773438 52.398438 L 87.902344 52.355469 C 88.035156 52.308594 88.171875 52.273438 88.3125 52.246094 L 88.445312 52.222656 L 88.550781 52.222656 C 88.699219 52.207031 88.847656 52.203125 88.996094 52.207031 C 89.121094 52.207031 89.25 52.207031 89.378906 52.226562 L 89.496094 52.226562 L 89.714844 52.265625 C 90.003906 52.320312 90.285156 52.398438 90.5625 52.492188 C 90.6875 52.53125 90.800781 52.574219 90.921875 52.625 L 91.066406 52.6875 L 91.285156 52.789062 C 91.550781 52.921875 91.804688 53.070312 92.054688 53.234375 C 92.160156 53.304688 92.261719 53.378906 92.363281 53.453125 L 92.476562 53.542969 L 92.652344 53.695312 C 92.90625 53.921875 93.148438 54.160156 93.386719 54.410156 C 93.773438 54.804688 94.140625 55.21875 94.507812 55.636719 C 93.636719 56.390625 92.652344 56.953125 91.554688 57.324219 C 90.902344 57.527344 90.238281 57.601562 89.558594 57.542969 L 89.476562 57.542969 L 89.28125 57.503906 C 89.128906 57.46875 88.980469 57.425781 88.832031 57.371094 L 88.71875 57.328125 L 88.570312 57.257812 C 88.425781 57.1875 88.289062 57.109375 88.152344 57.027344 C 88.046875 56.957031 87.941406 56.886719 87.839844 56.808594 C 87.820312 56.789062 87.738281 56.726562 87.726562 56.714844 C 87.664062 56.660156 87.605469 56.609375 87.550781 56.554688 C 87.449219 56.460938 87.351562 56.363281 87.257812 56.261719 C 87.210938 56.207031 87.164062 56.148438 87.117188 56.089844 L 87.039062 55.984375 C 86.964844 55.875 86.890625 55.761719 86.828125 55.648438 C 86.789062 55.582031 86.753906 55.515625 86.71875 55.449219 C 86.71875 55.425781 86.675781 55.347656 86.660156 55.324219 C 86.566406 55.085938 86.5 54.84375 86.457031 54.59375 C 86.457031 54.570312 86.457031 54.53125 86.457031 54.503906 C 86.457031 54.476562 86.457031 54.378906 86.457031 54.320312 C 86.457031 54.257812 86.460938 54.160156 86.460938 54.089844 Z M 86.46875 54.089844 " fill-opacity="1" fill-rule="nonzero"/><path fill="#336b87" d="M 111.777344 112.199219 C 111.960938 112.199219 112.144531 112.199219 112.324219 112.199219 C 112.472656 112.195312 112.625 112.203125 112.773438 112.226562 L 112.816406 112.226562 L 112.914062 112.246094 C 113.007812 112.265625 113.101562 112.289062 113.203125 112.316406 C 113.28125 112.335938 113.355469 112.359375 113.429688 112.386719 L 113.457031 112.386719 L 113.515625 112.414062 C 113.585938 112.445312 113.652344 112.484375 113.714844 112.523438 L 113.808594 112.582031 C 113.863281 112.632812 113.917969 112.683594 113.96875 112.734375 L 114.027344 112.800781 C 114.066406 112.859375 114.101562 112.914062 114.136719 112.972656 C 114.167969 113.035156 114.171875 113.039062 114.183594 113.070312 C 114.183594 113.078125 114.183594 113.085938 114.183594 113.089844 C 114.242188 113.277344 114.355469 113.417969 114.523438 113.511719 C 114.691406 113.609375 114.871094 113.632812 115.058594 113.585938 C 115.246094 113.53125 115.390625 113.417969 115.484375 113.246094 C 115.582031 113.078125 115.605469 112.898438 115.550781 112.710938 C 115.253906 111.878906 114.6875 111.316406 113.855469 111.015625 C 113.125 110.765625 112.378906 110.679688 111.613281 110.765625 C 110.832031 110.859375 110.066406 111.011719 109.308594 111.21875 C 109.125 111.257812 108.941406 111.300781 108.753906 111.332031 C 108.664062 111.351562 108.570312 111.367188 108.476562 111.378906 L 108.367188 111.398438 L 108.273438 111.398438 C 107.898438 111.457031 107.519531 111.476562 107.140625 111.460938 L 107.023438 111.460938 C 106.9375 111.445312 106.855469 111.425781 106.773438 111.40625 C 106.691406 111.382812 106.613281 111.359375 106.535156 111.328125 L 106.492188 111.3125 L 106.457031 111.3125 L 106.390625 111.273438 C 106.320312 111.234375 106.25 111.191406 106.179688 111.148438 L 106.105469 111.085938 C 106.042969 111.027344 105.988281 110.960938 105.929688 110.902344 L 105.832031 110.75 C 105.800781 110.695312 105.769531 110.636719 105.742188 110.578125 L 105.742188 110.558594 C 105.699219 110.453125 105.660156 110.34375 105.632812 110.234375 C 105.570312 110.015625 105.527344 109.785156 105.488281 109.5625 C 105.425781 109.121094 105.328125 108.691406 105.195312 108.265625 C 104.914062 107.519531 104.492188 106.859375 103.9375 106.289062 C 103.378906 105.71875 102.726562 105.28125 101.988281 104.984375 C 100.433594 104.308594 98.832031 104.171875 97.1875 104.570312 C 95.316406 105.027344 93.667969 106.101562 92.230469 107.363281 C 90.847656 108.582031 89.695312 110.011719 88.476562 111.386719 C 87.878906 112.070312 87.238281 112.714844 86.554688 113.316406 L 86.308594 113.519531 L 86.175781 113.625 L 86.148438 113.644531 C 85.960938 113.785156 85.769531 113.9375 85.5625 114.050781 C 85.179688 114.300781 84.777344 114.519531 84.355469 114.703125 L 84.332031 114.703125 L 84.292969 114.71875 L 84.125 114.78125 L 83.746094 114.914062 C 83.503906 114.992188 83.261719 115.058594 83.015625 115.121094 C 82.507812 115.246094 81.996094 115.339844 81.480469 115.414062 C 80.480469 115.550781 79.492188 115.738281 78.511719 115.972656 C 76.871094 116.417969 75.191406 117.324219 74.304688 118.832031 C 74.082031 119.207031 73.921875 119.609375 73.820312 120.035156 C 73.769531 120.222656 73.792969 120.402344 73.890625 120.570312 C 73.984375 120.742188 74.128906 120.851562 74.316406 120.902344 C 74.503906 120.957031 74.683594 120.933594 74.851562 120.835938 C 75.019531 120.742188 75.132812 120.597656 75.183594 120.410156 C 75.222656 120.246094 75.273438 120.082031 75.332031 119.921875 C 75.332031 119.9375 75.398438 119.773438 75.414062 119.738281 C 75.46875 119.640625 75.523438 119.542969 75.582031 119.445312 C 75.628906 119.367188 75.683594 119.292969 75.734375 119.214844 L 75.828125 119.101562 C 75.957031 118.953125 76.09375 118.8125 76.238281 118.683594 C 76.308594 118.617188 76.382812 118.558594 76.457031 118.496094 L 76.515625 118.453125 L 76.585938 118.394531 C 76.753906 118.28125 76.925781 118.167969 77.101562 118.066406 C 77.277344 117.964844 77.445312 117.878906 77.621094 117.792969 L 77.863281 117.683594 L 77.910156 117.660156 L 78.105469 117.589844 C 79.902344 116.914062 81.859375 116.898438 83.699219 116.394531 C 84.648438 116.136719 85.53125 115.738281 86.351562 115.195312 C 87.121094 114.675781 87.832031 114.078125 88.480469 113.410156 C 89.742188 112.144531 90.8125 110.714844 92.070312 109.433594 C 92.390625 109.101562 92.722656 108.78125 93.066406 108.472656 C 93.21875 108.332031 93.378906 108.195312 93.535156 108.0625 L 93.789062 107.851562 L 93.917969 107.75 L 93.980469 107.703125 C 94.691406 107.15625 95.457031 106.699219 96.273438 106.328125 L 96.351562 106.296875 L 96.460938 106.25 L 96.753906 106.140625 C 96.964844 106.066406 97.179688 106 97.398438 105.941406 C 97.617188 105.882812 97.777344 105.847656 97.984375 105.8125 C 98.023438 105.8125 98.304688 105.746094 98.109375 105.792969 C 98.210938 105.773438 98.316406 105.761719 98.421875 105.761719 C 98.78125 105.734375 99.136719 105.734375 99.492188 105.761719 L 99.757812 105.789062 L 99.78125 105.789062 L 99.882812 105.800781 C 100.082031 105.835938 100.269531 105.875 100.46875 105.925781 C 100.667969 105.976562 100.808594 106.019531 100.976562 106.078125 L 101.226562 106.167969 L 101.324219 106.207031 L 101.339844 106.207031 L 101.371094 106.21875 C 101.695312 106.367188 102.007812 106.539062 102.304688 106.734375 L 102.46875 106.855469 L 102.613281 106.964844 C 102.75 107.089844 102.890625 107.21875 103.015625 107.351562 C 103.074219 107.414062 103.132812 107.476562 103.1875 107.539062 L 103.25 107.617188 C 103.347656 107.753906 103.441406 107.890625 103.527344 108.035156 C 103.601562 108.171875 103.671875 108.308594 103.730469 108.449219 C 103.730469 108.488281 103.785156 108.582031 103.796875 108.613281 C 103.828125 108.710938 103.859375 108.808594 103.886719 108.902344 C 104.003906 109.347656 104.050781 109.808594 104.152344 110.257812 C 104.308594 111.207031 104.792969 111.929688 105.609375 112.433594 C 107.027344 113.230469 108.816406 112.847656 110.308594 112.453125 C 110.652344 112.34375 111.007812 112.269531 111.367188 112.230469 C 111.167969 112.246094 111.445312 112.230469 111.492188 112.230469 Z M 86.175781 113.542969 Z M 105.683594 110.46875 C 105.667969 110.441406 105.683594 110.453125 105.683594 110.46875 Z M 106.453125 111.277344 L 106.515625 111.304688 C 106.515625 111.304688 106.480469 111.292969 106.453125 111.277344 Z M 107.054688 111.445312 L 107.113281 111.445312 C 107.097656 111.453125 107.078125 111.460938 107.054688 111.460938 Z M 107.054688 111.445312 " fill-opacity="1" fill-rule="nonzero"/><path fill="#336b87" d="M 44.8125 87.785156 L 44.789062 87.816406 C 44.761719 87.835938 44.726562 87.917969 44.8125 87.785156 Z M 44.8125 87.785156 " fill-opacity="1" fill-rule="nonzero"/><path fill="#336b87" d="M 45.289062 84.960938 C 45.167969 85.09375 45.261719 85 45.289062 84.960938 Z M 45.289062 84.960938 " fill-opacity="1" fill-rule="nonzero"/><path fill="#336b87" d="M 43.386719 90.621094 C 43.425781 90.460938 43.390625 90.566406 43.386719 90.621094 Z M 43.386719 90.621094 " fill-opacity="1" fill-rule="nonzero"/><path fill="#336b87" d="M 93.527344 10.625 L 93.546875 10.578125 Z M 93.527344 10.625 " fill-opacity="1" fill-rule="nonzero"/><g clip-path="url(#6c27e220b7)"><path fill="#336b87" d="M 97.242188 34.171875 C 99.355469 37.613281 101.601562 40.972656 103.707031 44.421875 C 104.003906 44.914062 104.304688 45.40625 104.605469 45.90625 C 104.667969 46.011719 104.753906 46.09375 104.863281 46.15625 C 104.972656 46.214844 105.089844 46.246094 105.214844 46.246094 C 105.335938 46.246094 105.453125 46.214844 105.5625 46.15625 C 105.671875 46.09375 105.757812 46.011719 105.824219 45.90625 C 107.90625 42.855469 109.796875 39.691406 111.492188 36.410156 C 112.304688 34.882812 113.101562 33.347656 113.910156 31.820312 C 114.75 30.238281 115.574219 28.667969 116.242188 27.011719 C 117.621094 23.675781 118.460938 20.210938 118.765625 16.617188 C 118.921875 14.90625 118.921875 13.195312 118.765625 11.488281 C 118.640625 10.039062 118.273438 8.65625 117.660156 7.339844 C 117.035156 6.070312 116.140625 5.035156 114.976562 4.234375 C 113.601562 3.320312 112.097656 2.785156 110.457031 2.628906 C 108.78125 2.441406 107.199219 2.742188 105.710938 3.523438 C 104.984375 3.933594 104.320312 4.417969 103.707031 4.984375 C 103.136719 5.492188 102.617188 6.046875 102.140625 6.644531 C 100.160156 9.152344 99.035156 12.332031 99.425781 15.542969 C 99.804688 18.617188 101.4375 21.824219 104.300781 23.265625 C 105.644531 23.941406 107.304688 24.285156 108.75 23.707031 C 110.40625 23.046875 111.28125 21.496094 111.777344 19.859375 C 112.269531 18.222656 112.445312 16.296875 111.859375 14.609375 C 111.59375 13.820312 111.171875 13.125 110.589844 12.527344 C 110.007812 11.925781 109.328125 11.484375 108.542969 11.195312 C 107.796875 10.933594 107.035156 10.882812 106.261719 11.042969 C 106.070312 11.097656 105.929688 11.207031 105.832031 11.378906 C 105.734375 11.550781 105.714844 11.730469 105.765625 11.917969 C 105.824219 12.105469 105.9375 12.246094 106.105469 12.34375 C 106.273438 12.4375 106.453125 12.460938 106.640625 12.414062 C 106.671875 12.414062 106.828125 12.386719 106.816406 12.386719 L 107.023438 12.386719 C 107.175781 12.382812 107.332031 12.390625 107.480469 12.40625 L 107.65625 12.433594 C 107.738281 12.453125 107.820312 12.46875 107.902344 12.492188 L 108.113281 12.558594 L 108.300781 12.628906 C 108.597656 12.761719 108.875 12.925781 109.136719 13.121094 L 109.273438 13.230469 L 109.441406 13.382812 C 109.578125 13.511719 109.703125 13.644531 109.824219 13.789062 L 109.898438 13.882812 L 109.914062 13.902344 C 109.957031 13.964844 110.003906 14.027344 110.042969 14.089844 C 110.144531 14.246094 110.238281 14.402344 110.320312 14.570312 C 110.390625 14.699219 110.445312 14.832031 110.492188 14.972656 C 110.5625 15.171875 110.625 15.378906 110.671875 15.585938 C 110.761719 15.941406 110.8125 16.300781 110.820312 16.667969 C 110.832031 17.074219 110.816406 17.480469 110.769531 17.886719 C 110.769531 17.921875 110.769531 17.960938 110.769531 18 C 110.769531 18.011719 110.769531 18.019531 110.769531 18.03125 C 110.75 18.132812 110.738281 18.234375 110.71875 18.324219 C 110.683594 18.523438 110.636719 18.722656 110.589844 18.925781 C 110.496094 19.308594 110.378906 19.6875 110.242188 20.058594 C 110.210938 20.148438 110.175781 20.238281 110.140625 20.328125 L 110.140625 20.34375 L 110.058594 20.464844 C 109.96875 20.648438 109.871094 20.828125 109.765625 21 C 109.605469 21.304688 109.402344 21.570312 109.152344 21.804688 C 109.082031 21.871094 109.015625 21.929688 108.945312 21.992188 L 108.925781 21.992188 L 108.84375 22.050781 C 108.699219 22.152344 108.546875 22.242188 108.386719 22.316406 L 108.324219 22.347656 L 108.300781 22.347656 L 108.070312 22.425781 C 107.910156 22.472656 107.742188 22.511719 107.574219 22.539062 L 107.480469 22.539062 C 107.398438 22.539062 107.316406 22.539062 107.230469 22.539062 C 107.054688 22.542969 106.878906 22.535156 106.703125 22.519531 L 106.5625 22.503906 L 106.359375 22.464844 C 106.191406 22.433594 106.023438 22.390625 105.859375 22.34375 C 105.699219 22.296875 105.53125 22.230469 105.367188 22.171875 L 105.332031 22.214844 L 105.25 22.175781 C 105.167969 22.140625 105.089844 22.101562 105.011719 22.0625 C 104.699219 21.902344 104.398438 21.722656 104.109375 21.519531 L 103.964844 21.410156 L 103.792969 21.269531 C 103.660156 21.15625 103.53125 21.035156 103.40625 20.914062 C 103.152344 20.660156 102.914062 20.390625 102.691406 20.109375 L 102.671875 20.085938 L 102.589844 19.972656 L 102.433594 19.753906 C 102.332031 19.605469 102.234375 19.464844 102.140625 19.296875 C 101.953125 18.988281 101.78125 18.667969 101.632812 18.339844 L 101.535156 18.125 L 101.472656 17.980469 C 101.402344 17.800781 101.339844 17.621094 101.277344 17.4375 C 101.164062 17.089844 101.066406 16.742188 100.988281 16.386719 C 100.953125 16.21875 100.921875 16.050781 100.890625 15.886719 C 100.875 15.792969 100.863281 15.703125 100.847656 15.613281 C 100.847656 15.554688 100.847656 15.492188 100.824219 15.4375 C 100.785156 15.074219 100.765625 14.710938 100.761719 14.34375 C 100.761719 13.980469 100.777344 13.617188 100.8125 13.253906 L 100.839844 13.019531 L 100.839844 12.996094 L 100.855469 12.867188 C 100.886719 12.683594 100.917969 12.503906 100.957031 12.328125 C 101.03125 11.964844 101.125 11.609375 101.230469 11.257812 C 101.285156 11.097656 101.339844 10.933594 101.398438 10.773438 C 101.429688 10.683594 101.460938 10.601562 101.496094 10.511719 C 101.511719 10.472656 101.53125 10.429688 101.546875 10.386719 L 101.546875 10.332031 C 101.835938 9.652344 102.1875 9.007812 102.597656 8.394531 C 102.691406 8.253906 102.789062 8.101562 102.890625 7.96875 C 102.941406 7.894531 102.996094 7.820312 103.050781 7.746094 L 103.085938 7.703125 L 103.175781 7.589844 C 103.40625 7.296875 103.648438 7.023438 103.90625 6.757812 C 104.164062 6.488281 104.410156 6.25 104.675781 6.007812 C 104.8125 5.886719 104.96875 5.765625 105.097656 5.648438 L 105.351562 5.445312 L 105.445312 5.375 C 105.746094 5.148438 106.0625 4.945312 106.394531 4.765625 C 106.550781 4.679688 106.710938 4.601562 106.875 4.527344 C 106.90625 4.527344 107 4.476562 107.019531 4.46875 L 107.308594 4.363281 C 107.664062 4.25 108.019531 4.160156 108.386719 4.097656 L 108.574219 4.070312 C 108.65625 4.058594 108.738281 4.050781 108.816406 4.042969 C 109 4.027344 109.1875 4.015625 109.375 4.015625 C 110.839844 3.988281 112.222656 4.316406 113.515625 5.007812 C 113.808594 5.164062 114.089844 5.339844 114.363281 5.53125 L 114.527344 5.652344 L 114.617188 5.730469 C 114.75 5.839844 114.875 5.949219 114.992188 6.0625 C 115.210938 6.269531 115.410156 6.488281 115.597656 6.722656 C 115.621094 6.75 115.644531 6.777344 115.667969 6.804688 C 115.703125 6.859375 115.746094 6.914062 115.785156 6.964844 C 115.878906 7.101562 115.96875 7.238281 116.054688 7.375 C 116.21875 7.636719 116.363281 7.90625 116.496094 8.1875 C 116.527344 8.257812 116.554688 8.332031 116.589844 8.402344 C 116.601562 8.421875 116.613281 8.445312 116.621094 8.472656 C 116.683594 8.625 116.742188 8.78125 116.796875 8.941406 C 117.003906 9.558594 117.160156 10.1875 117.261719 10.832031 C 117.261719 10.90625 117.28125 10.980469 117.292969 11.050781 C 117.292969 11.078125 117.292969 11.105469 117.292969 11.128906 C 117.292969 11.144531 117.292969 11.160156 117.292969 11.175781 C 117.3125 11.347656 117.335938 11.515625 117.347656 11.6875 C 117.382812 12.0625 117.40625 12.445312 117.417969 12.824219 C 117.453125 13.671875 117.453125 14.515625 117.417969 15.359375 C 117.351562 17.015625 117.152344 18.65625 116.816406 20.277344 C 116.480469 21.9375 116.019531 23.566406 115.445312 25.164062 C 114.886719 26.714844 114.21875 28.21875 113.441406 29.675781 C 112.6875 31.105469 111.921875 32.535156 111.167969 33.96875 C 109.5625 37.035156 107.921875 40.09375 106.054688 43.007812 C 105.785156 43.429688 105.507812 43.847656 105.226562 44.261719 C 103.277344 41.054688 101.226562 37.914062 99.226562 34.738281 C 98.324219 33.296875 97.4375 31.84375 96.605469 30.363281 C 96.214844 29.664062 95.839844 28.949219 95.484375 28.230469 C 95.3125 27.882812 95.144531 27.535156 94.984375 27.179688 L 94.773438 26.707031 L 94.660156 26.445312 L 94.636719 26.394531 C 94.636719 26.375 94.582031 26.257812 94.578125 26.246094 C 93.996094 24.839844 93.535156 23.398438 93.183594 21.921875 C 93.003906 21.164062 92.855469 20.394531 92.742188 19.621094 L 92.707031 19.375 C 92.707031 19.375 92.6875 19.21875 92.679688 19.183594 C 92.65625 18.96875 92.632812 18.757812 92.609375 18.542969 C 92.566406 18.132812 92.53125 17.71875 92.507812 17.300781 C 92.449219 16.457031 92.449219 15.609375 92.507812 14.761719 C 92.507812 14.5625 92.542969 14.367188 92.566406 14.179688 C 92.566406 14.140625 92.59375 14 92.566406 14.148438 L 92.585938 14.023438 C 92.601562 13.902344 92.621094 13.777344 92.644531 13.652344 C 92.71875 13.242188 92.808594 12.835938 92.921875 12.433594 C 93.03125 12.03125 93.15625 11.632812 93.300781 11.242188 C 93.367188 11.042969 93.449219 10.851562 93.527344 10.660156 C 93.535156 10.644531 93.542969 10.628906 93.546875 10.613281 C 93.5625 10.582031 93.574219 10.550781 93.585938 10.519531 C 93.632812 10.414062 93.679688 10.3125 93.730469 10.207031 C 94.085938 9.445312 94.503906 8.71875 94.976562 8.023438 C 95.097656 7.851562 95.214844 7.679688 95.339844 7.511719 L 95.417969 7.414062 L 95.480469 7.328125 C 95.503906 7.296875 95.539062 7.25 95.539062 7.253906 L 95.65625 7.109375 C 95.921875 6.78125 96.199219 6.46875 96.488281 6.164062 C 96.777344 5.871094 97.070312 5.582031 97.390625 5.289062 C 97.546875 5.148438 97.707031 5.015625 97.867188 4.878906 L 98.089844 4.703125 L 98.171875 4.636719 L 98.265625 4.5625 C 98.9375 4.058594 99.644531 3.617188 100.390625 3.234375 C 100.574219 3.140625 100.761719 3.046875 100.953125 2.957031 L 101.242188 2.832031 L 101.277344 2.832031 L 101.421875 2.773438 C 101.808594 2.617188 102.207031 2.484375 102.605469 2.359375 C 103.003906 2.238281 103.417969 2.140625 103.828125 2.070312 C 104.015625 2.015625 104.160156 1.902344 104.253906 1.734375 C 104.351562 1.5625 104.375 1.382812 104.320312 1.195312 C 104.265625 1.007812 104.152344 0.867188 103.984375 0.769531 C 103.8125 0.675781 103.632812 0.652344 103.445312 0.703125 C 101.722656 1.070312 100.109375 1.714844 98.609375 2.636719 C 97.105469 3.5625 95.804688 4.707031 94.695312 6.078125 C 92.457031 8.8125 91.058594 12.246094 91.042969 15.804688 C 91.042969 19.121094 91.617188 22.335938 92.765625 25.449219 C 93.902344 28.492188 95.523438 31.378906 97.242188 34.171875 Z M 109.878906 13.855469 Z M 109.878906 13.855469 " fill-opacity="1" fill-rule="nonzero"/></g></svg>